<?xml version="1.0" standalone="no"?>
<!DOCTYPE svg PUBLIC "-//W3C//DTD SVG 20010904//EN"
 "http://www.w3.org/TR/2001/REC-SVG-20010904/DTD/svg10.dtd">
<svg version="1.0" xmlns="http://www.w3.org/2000/svg"
 width="300.000000pt" height="360.000000pt" viewBox="0 0 300.000000 360.000000"
 preserveAspectRatio="xMidYMid meet">
<metadata>
Created by potrace 1.10, written by Peter Selinger 2001-2011
</metadata>
<g transform="translate(0.000000,360.000000) scale(0.100000,-0.100000)"
fill="#000000" stroke="none">
<path d="M1443 3511 c4 -19 2 -31 -6 -34 -7 -2 -4 -3 6 -2 9 2 17 -1 17 -5 0
-5 7 -16 16 -24 16 -16 11 -61 -6 -51 -10 6 -23 -12 -27 -39 -3 -17 -1 -17 17
4 l20 23 0 -43 c0 -29 -6 -48 -17 -57 -17 -14 -17 -14 0 -9 11 4 17 0 17 -12
1 -16 1 -16 11 1 15 25 35 21 35 -7 0 -14 -3 -23 -7 -20 -11 6 -39 -7 -39 -18
0 -6 7 -5 16 2 12 11 15 11 12 -1 -2 -8 3 -14 11 -14 18 0 34 42 19 51 -7 5
-7 8 1 13 7 5 4 13 -9 24 -11 9 -20 12 -20 7 0 -6 -4 -10 -8 -10 -5 0 -9 23
-10 50 -1 49 0 50 28 50 15 0 36 3 44 6 12 4 15 2 10 -9 -3 -9 -1 -25 6 -36 8
-15 8 -21 0 -21 -6 0 -9 -4 -6 -9 3 -5 0 -26 -8 -47 -7 -22 -10 -48 -6 -58 5
-16 8 -15 20 13 10 24 18 31 32 28 17 -5 23 7 19 41 -1 6 2 12 6 12 4 0 14 4
21 8 15 10 -3 73 -21 69 -7 -1 -11 6 -9 15 2 12 -2 16 -13 12 -8 -3 -15 -1
-15 6 0 6 -5 8 -11 4 -6 -3 -25 7 -42 22 -17 16 -24 20 -14 8 28 -33 18 -61
-11 -32 -14 14 -17 72 -3 64 5 -3 12 1 15 10 3 8 10 12 16 9 5 -3 10 -1 10 6
0 7 9 9 28 5 15 -4 35 -8 44 -9 9 -1 14 -5 12 -9 -3 -4 7 -17 21 -30 l25 -22
-22 -23 c-12 -13 -18 -23 -13 -23 4 0 14 8 21 17 18 26 27 10 32 -57 4 -59 4
-60 -22 -60 -30 0 -47 -27 -25 -41 9 -6 15 -4 17 6 2 8 8 15 13 15 10 0 8 -38
-3 -56 -8 -12 3 -63 14 -64 4 0 15 -3 23 -7 9 -3 19 -2 23 2 4 4 1 10 -5 12
-15 5 1 43 23 56 16 9 19 37 3 37 -5 0 -8 -3 -6 -7 7 -11 -19 -33 -29 -25 -4
4 -4 -1 -1 -10 4 -10 2 -18 -4 -18 -6 0 -8 -4 -4 -9 3 -5 1 -12 -5 -16 -13 -8
-26 25 -14 34 5 3 9 20 9 36 0 19 9 38 25 53 17 15 19 20 8 16 -26 -9 -22 6
11 45 18 21 31 29 35 22 4 -6 10 -9 14 -7 4 2 8 -15 10 -39 3 -43 2 -43 -29
-42 -19 1 -34 -4 -37 -11 -3 -10 5 -13 29 -11 24 2 33 -1 31 -10 -1 -7 2 -10
8 -6 16 10 24 -26 11 -47 -14 -23 -10 -31 10 -23 18 7 19 66 1 88 -12 14 -11
16 7 14 13 -1 21 -8 21 -19 0 -26 15 -30 36 -7 16 17 16 22 4 29 -8 6 -23 10
-34 10 -15 0 -16 3 -6 15 15 18 56 20 67 2 4 -7 23 -19 41 -26 17 -8 32 -18
32 -23 0 -5 5 -6 10 -3 17 10 11 -64 -7 -92 -16 -23 -17 -24 -25 -7 -7 17 -7
16 -5 -4 1 -14 -8 -30 -27 -45 -25 -20 -26 -24 -12 -36 13 -11 15 -10 11 7 -3
15 1 19 16 15 14 -4 21 2 29 23 9 23 13 25 20 14 7 -11 10 -9 10 12 0 37 18
45 30 13 14 -38 12 -65 -5 -65 -8 0 -15 -9 -15 -20 0 -11 -9 -25 -20 -32 -11
-7 -20 -17 -20 -21 0 -5 9 -5 20 -2 12 4 20 2 20 -5 0 -6 5 -8 11 -4 8 4 7 9
-2 14 -9 6 -9 12 4 24 8 9 20 16 26 16 6 0 8 7 5 15 -9 23 4 65 20 65 8 0 16
-6 19 -12 3 -10 9 -9 22 3 16 16 16 17 -4 24 -12 4 -19 11 -15 18 5 8 2 8 -7
0 -22 -22 -27 -15 -31 42 -3 61 6 72 21 23 6 -22 9 -26 10 -12 1 29 -23 59
-43 51 -9 -4 -16 -11 -16 -17 0 -6 4 -9 8 -6 5 3 9 -13 10 -34 1 -22 -2 -40
-7 -40 -13 0 -25 39 -22 68 1 13 -3 30 -9 38 -14 16 1 19 17 3 7 -7 15 -6 25
4 27 27 67 -21 83 -99 l8 -39 8 30 c6 21 7 11 5 -32 -2 -35 0 -61 4 -58 4 3
10 -2 14 -10 3 -8 2 -15 -3 -15 -12 0 -28 21 -34 45 -3 12 -6 3 -7 -20 -1 -22
-3 -44 -5 -50 -1 -5 -3 -19 -3 -30 -2 -18 -3 -18 -18 3 l-16 23 -20 -26 c-11
-14 -30 -25 -43 -25 -14 0 -25 -7 -28 -19 -3 -14 -1 -18 9 -14 8 3 11 9 8 14
-3 5 0 9 5 9 6 0 11 -5 11 -12 0 -7 15 3 34 21 35 34 54 27 34 -12 -8 -15 -6
-18 9 -15 10 2 19 9 19 16 1 6 3 15 4 20 5 13 8 27 9 50 1 14 6 22 14 19 6 -2
11 -13 10 -25 -2 -16 2 -19 18 -15 20 6 20 4 8 -18 -7 -13 -13 -27 -14 -31 0
-3 -10 -18 -22 -32 -13 -14 -19 -26 -14 -26 6 0 13 5 16 10 11 18 34 -9 41
-49 4 -20 11 -41 16 -48 5 -7 5 -14 -2 -18 -5 -3 -10 -14 -10 -23 1 -15 2 -16
13 -1 7 9 18 15 25 13 7 -1 8 0 2 3 -5 2 -8 9 -4 14 3 5 0 9 -7 9 -7 0 -9 10
-7 25 3 14 2 25 -2 25 -13 0 -19 40 -8 47 7 4 8 1 3 -8 -7 -12 -6 -12 7 -1 25
20 43 -9 29 -49 -9 -27 -9 -30 4 -19 13 11 14 10 9 -4 -5 -12 -2 -15 10 -10
20 8 20 1 1 -37 -12 -23 -19 -27 -32 -20 -22 12 -56 -20 -51 -49 3 -22 3 -22
28 5 21 23 22 25 5 20 -15 -5 -17 -4 -6 3 24 17 37 3 34 -38 -1 -24 2 -38 8
-35 5 4 9 -2 9 -12 0 -10 5 -25 10 -33 12 -18 2 46 -11 70 -5 9 -1 22 9 34 9
11 11 16 5 12 -19 -10 -16 9 7 54 11 22 20 49 20 60 0 12 4 19 8 16 4 -2 8 4
8 15 0 10 -4 19 -8 19 -4 0 -8 12 -8 26 0 14 3 23 8 21 4 -3 7 6 7 19 0 13 -4
24 -8 24 -5 0 -5 5 -2 10 3 6 0 10 -8 10 -8 0 -21 15 -28 33 -7 17 -26 44 -41
59 -16 15 -28 32 -28 38 0 5 -5 9 -12 8 -6 -2 -19 12 -28 30 -9 18 -20 29 -25
25 -4 -4 -5 0 -1 11 8 23 -60 89 -86 82 -10 -2 -18 1 -18 9 0 7 -8 19 -17 26
-16 13 -17 12 -4 -4 16 -20 15 -22 -15 -31 -15 -4 -32 3 -60 25 -43 35 -100
63 -126 61 -9 0 -19 5 -21 13 -3 7 -22 18 -41 25 -20 6 -36 16 -36 21 0 5 -5
9 -11 9 -5 0 -8 -4 -5 -9 3 -5 0 -11 -7 -14 -8 -3 -26 10 -40 29 -43 52 -114
65 -158 27 -13 -11 -18 -10 -34 7 -10 11 -27 20 -38 20 -16 0 -19 -5 -14 -29z
m53 -13 c1 -12 -4 -18 -16 -18 -18 0 -34 23 -22 34 11 12 35 1 38 -16z m274
-64 c0 -13 3 -14 14 -5 8 7 16 8 19 4 2 -4 -13 -24 -33 -44 l-38 -37 -6 37
c-9 56 -8 61 19 61 16 0 25 -6 25 -16z m126 -51 c9 -10 23 -18 31 -19 22 -4
84 -48 72 -52 -5 -2 -21 3 -34 12 -13 9 -37 16 -53 16 -30 0 -44 11 -55 43 -8
22 16 23 39 0z m-36 -39 c0 -20 -11 -44 -21 -44 -5 0 -9 21 -9 48 1 43 2 46
15 28 8 -11 15 -25 15 -32z m-244 7 c-1 -21 2 -27 12 -23 12 4 12 1 0 -19 -15
-27 -51 -59 -58 -53 -2 3 1 8 7 12 14 9 33 79 26 98 -3 8 -1 14 5 14 5 0 9
-13 8 -29z m640 -247 c-3 -8 -2 -13 3 -10 12 8 34 -20 29 -36 -3 -7 1 -19 8
-26 15 -14 8 -42 -10 -42 -6 0 -28 -9 -49 -19 -20 -10 -37 -17 -37 -15 0 2 9
20 20 39 25 44 22 81 -6 110 -16 16 -20 30 -16 50 l5 28 29 -32 c16 -18 27
-39 24 -47z m61 -142 c-9 -10 -17 -25 -17 -32 0 -9 -3 -11 -10 -4 -15 15 -1
54 18 47 12 -5 14 -2 8 13 -6 15 -5 16 5 7 10 -10 9 -16 -4 -31z m9 -27 c-3
-8 -1 -15 4 -15 6 0 10 -5 10 -11 0 -5 -4 -7 -10 -4 -5 3 -10 -1 -10 -10 0 -9
-4 -14 -8 -11 -12 7 -2 66 10 66 6 0 8 -7 4 -15z"/>
<path d="M1860 3485 c7 -8 16 -12 21 -9 5 3 9 1 9 -4 0 -6 7 -13 15 -16 13 -5
12 -1 -2 19 -10 13 -26 25 -37 25 -15 0 -16 -3 -6 -15z"/>
<path d="M1220 3455 c0 -8 6 -12 13 -10 18 6 102 -38 99 -53 -1 -8 2 -11 7 -8
5 4 17 -4 25 -16 13 -18 16 -19 16 -6 0 21 -51 60 -113 87 -38 16 -47 18 -47
6z"/>
<path d="M926 3430 c-22 -11 -50 -30 -62 -41 -29 -27 -64 -101 -64 -133 0 -19
-4 -23 -20 -19 -56 15 -121 -23 -156 -91 -18 -34 -35 -106 -25 -106 3 0 6 -14
7 -30 1 -23 -3 -30 -15 -28 -12 2 -16 15 -16 45 0 23 -3 39 -8 34 -11 -11 -19
-83 -8 -76 5 3 12 1 16 -5 3 -5 15 -10 27 -10 11 0 22 -8 25 -19 3 -11 11 -17
19 -14 10 4 11 9 1 23 -6 11 -8 23 -4 27 12 12 28 -20 21 -42 -3 -11 -6 -28
-7 -38 -1 -10 -7 -15 -14 -13 -9 4 -10 0 -1 -19 6 -14 18 -25 25 -25 8 0 11 5
8 10 -3 6 -1 10 6 10 10 0 10 3 1 12 -14 14 -16 42 -3 33 5 -3 12 -1 16 5 3 5
1 10 -5 10 -7 0 -9 8 -5 20 4 14 -2 30 -18 49 -28 34 -42 93 -28 119 8 13 10
8 11 -25 0 -61 7 -75 31 -60 10 6 19 17 19 24 0 6 16 25 37 42 44 36 132 52
160 30 9 -8 18 -13 20 -11 12 9 20 -2 18 -28 -1 -16 2 -27 5 -25 4 3 14 -3 21
-12 12 -15 12 -16 -3 -10 -12 4 -15 2 -12 -8 4 -10 -4 -12 -38 -8 -24 3 -45 7
-47 9 -10 9 -61 -58 -61 -78 0 -20 2 -19 20 10 26 42 45 49 73 26 l22 -19 -19
23 c-20 23 -7 31 16 10 16 -16 42 -22 34 -9 -16 25 14 17 40 -10 16 -17 37
-35 47 -41 16 -8 18 -7 10 7 -5 9 -20 22 -33 28 -21 11 -27 36 -7 29 5 -1 5 2
2 8 -4 6 -14 9 -24 5 -12 -5 -13 -3 -4 6 9 9 7 16 -8 33 -13 14 -18 28 -14 41
4 11 7 28 8 37 1 9 5 14 9 12 4 -3 8 1 8 9 0 16 63 30 68 16 2 -5 9 -9 17 -9
7 0 18 -7 25 -15 15 -18 29 -11 27 15 -1 10 -5 16 -10 13 -4 -2 -15 1 -23 8
-12 10 -12 14 7 27 17 12 23 12 29 2 7 -11 12 -10 25 3 9 10 21 15 26 12 5 -4
9 0 9 7 0 9 3 9 10 -2 5 -8 10 -10 10 -5 0 6 5 3 10 -5 7 -11 2 -22 -15 -40
-14 -14 -27 -41 -30 -60 -3 -19 -2 -28 1 -20 4 8 15 23 26 34 10 11 18 25 18
31 0 6 10 22 22 35 17 18 18 22 5 17 -31 -12 -19 20 13 33 16 7 35 19 42 27 8
11 0 9 -27 -6 -42 -22 -58 -20 -33 5 8 9 35 18 59 21 34 3 41 2 29 -7 -12 -8
-10 -9 11 -5 16 4 31 1 40 -8 8 -7 19 -12 26 -10 6 2 18 -6 27 -19 15 -20 15
-23 -2 -32 -9 -6 -20 -11 -24 -11 -5 0 -8 -3 -8 -7 0 -5 0 -13 0 -18 0 -6 11
-3 25 6 13 8 29 13 34 10 18 -11 -7 56 -26 69 -24 18 -23 38 2 47 16 5 14 6
-10 8 -16 1 -34 2 -39 1 -4 -1 -20 6 -34 15 -23 15 -26 15 -34 0 -13 -24 -31
-20 -53 13 -11 17 -21 28 -24 26 -2 -2 -11 0 -20 5 -22 11 -153 21 -146 10 3
-4 -6 -11 -19 -14 -21 -5 -52 -36 -96 -94 -11 -14 -14 -35 -11 -69 4 -36 6
-40 8 -18 2 17 9 41 16 54 12 23 12 22 18 -20 6 -40 4 -47 -25 -75 l-32 -30
-39 18 c-60 27 -149 2 -176 -49 -7 -13 -16 -23 -21 -23 -4 0 -8 -8 -8 -17 0
-10 -3 -13 -9 -7 -10 10 -20 94 -11 91 3 -1 7 3 10 8 12 25 37 46 69 56 31 11
36 10 53 -11 15 -19 18 -20 18 -5 0 17 1 17 20 0 17 -16 20 -16 15 -3 -4 9
-13 19 -21 22 -42 16 11 145 78 189 37 24 51 28 96 24 54 -4 52 6 -3 17 -20 3
-43 -1 -69 -14z m214 -55 c0 -16 -49 -50 -69 -47 -22 4 -21 6 15 27 39 23 54
29 54 20z m91 -5 c6 0 7 -4 4 -10 -3 -5 1 -10 9 -10 24 0 19 -16 -9 -34 -28
-18 -50 -13 -41 11 4 8 1 11 -5 8 -6 -4 -8 -13 -5 -20 3 -8 -3 -16 -12 -18
-11 -3 -8 -5 8 -6 18 -1 26 -7 27 -21 2 -21 -12 -27 -22 -10 -5 8 -11 8 -20 0
-10 -8 -14 -7 -18 2 -4 8 -6 7 -6 -4 -1 -20 -18 -23 -41 -8 -13 9 -12 12 4 25
11 8 14 15 7 15 -8 0 -10 7 -5 22 9 29 33 47 62 48 12 0 22 5 22 11 0 6 7 8
16 5 9 -3 20 -6 25 -6z m-200 -47 c-5 -10 -16 -27 -25 -38 -15 -19 -15 -19
-16 -1 0 20 27 56 42 56 5 0 4 -8 -1 -17z m42 -23 c15 0 14 -48 -2 -78 -8 -15
-21 -22 -42 -22 -29 0 -30 1 -15 22 9 12 16 31 16 41 0 25 22 65 28 49 2 -6 9
-12 15 -12z m-441 -292 c-10 -21 -18 -3 -19 45 l-2 52 13 -45 c7 -25 10 -48 8
-52z"/>
<path d="M925 3370 c-11 -12 -25 -18 -34 -15 -8 3 -12 3 -8 -1 4 -4 2 -13 -4
-20 -7 -8 -6 -14 2 -20 7 -4 9 -3 6 3 -3 5 7 20 23 31 27 21 30 21 39 4 10
-16 10 -16 11 1 0 9 -5 17 -11 17 -5 0 -7 5 -4 10 10 17 -1 11 -20 -10z"/>
<path d="M1299 3269 c-11 -7 -11 -9 3 -9 9 0 18 -4 20 -10 5 -15 50 -17 54 -2
1 7 0 8 -3 2 -7 -15 -21 -12 -42 9 -12 12 -23 16 -32 10z"/>
<path d="M1937 3273 c-11 -10 -9 -16 17 -45 27 -32 32 -34 39 -14 6 15 -46 70
-56 59z"/>
<path d="M1789 3217 c-3 -21 -2 -40 2 -43 14 -8 18 11 10 46 l-8 35 -4 -38z"/>
<path d="M1907 3232 c7 -4 10 -17 6 -30 -3 -12 -9 -19 -14 -16 -5 3 -9 0 -9
-5 0 -6 -7 -11 -17 -11 -9 0 -13 -3 -10 -7 4 -3 2 -12 -4 -19 -7 -8 -7 -14 1
-19 5 -3 13 1 16 10 6 14 9 14 31 -1 14 -9 23 -11 19 -6 -3 6 -3 12 1 15 5 2
3 2 -4 1 -23 -6 -24 16 -4 45 20 28 14 51 -13 51 -6 0 -6 -4 1 -8z"/>
<path d="M1320 3219 c0 -5 5 -9 11 -9 6 0 8 -7 5 -16 -4 -10 -1 -14 6 -12 22
8 20 35 -2 41 -11 3 -20 1 -20 -4z"/>
<path d="M1274 3186 c-19 -20 8 -34 28 -15 15 16 15 17 -1 22 -9 2 -21 -1 -27
-7z"/>
<path d="M1668 3194 c-5 -4 -8 -21 -8 -38 0 -21 3 -27 11 -19 6 6 9 23 7 38
-2 15 -6 23 -10 19z"/>
<path d="M1424 3179 c-3 -5 3 -9 13 -10 13 -1 11 -3 -7 -9 l-25 -8 25 -1 c15
-1 30 7 37 18 10 16 9 19 -13 19 -13 0 -27 -4 -30 -9z"/>
<path d="M1493 3173 c-7 -2 -13 -14 -13 -25 0 -20 1 -21 20 -3 30 27 26 42 -7
28z"/>
<path d="M1526 3151 c-10 -11 -15 -25 -11 -30 3 -6 -2 -11 -12 -12 -10 0 -13
-3 -6 -5 22 -10 53 15 51 41 -3 30 -1 29 -22 6z"/>
<path d="M1259 3160 c-6 -28 -6 -71 0 -61 5 7 14 16 20 20 8 5 7 13 -4 27 -8
10 -15 17 -16 14z"/>
<path d="M1400 3130 c0 -9 14 -14 32 -11 4 0 5 -7 1 -17 -5 -14 -4 -15 8 -4
12 11 11 15 -5 28 -23 16 -36 18 -36 4z"/>
<path d="M837 3114 c-4 -5 -13 -9 -20 -10 -60 -11 -121 -61 -110 -92 4 -10 2
-13 -5 -8 -7 4 -12 2 -12 -4 0 -6 11 -16 25 -22 14 -6 25 -17 25 -24 0 -21 16
-24 17 -4 1 11 -7 22 -18 25 -43 14 -9 64 44 65 20 0 26 4 21 13 -5 8 -2 7 9
-2 10 -8 21 -11 25 -7 4 4 -1 12 -11 18 -15 8 -16 12 -6 24 10 13 15 11 37 -8
24 -22 24 -22 14 -2 -6 12 -8 25 -4 29 4 5 2 5 -5 2 -6 -4 -13 -2 -15 4 -2 5
-7 7 -11 3z"/>
<path d="M965 3111 c-8 -15 33 -33 56 -26 20 7 19 8 -6 21 -32 16 -42 17 -50
5z"/>
<path d="M1610 3111 c0 -6 9 -20 21 -32 20 -20 20 -21 2 -41 -18 -21 -18 -21
5 -7 28 17 28 24 -3 61 -14 16 -25 25 -25 19z"/>
<path d="M1113 3092 c9 -9 20 -29 26 -42 l10 -25 0 28 c1 37 -1 43 -16 39 -7
-2 -13 2 -13 8 0 5 -5 10 -12 10 -7 0 -5 -7 5 -18z"/>
<path d="M1263 3083 c-7 -3 -13 -9 -13 -14 0 -4 7 -5 17 -2 10 4 14 2 9 -5 -3
-6 -2 -13 4 -17 5 -3 10 -14 10 -23 0 -13 -2 -14 -9 -3 -14 22 -20 -2 -7 -27
11 -20 14 -21 24 -9 10 11 10 21 1 43 -7 16 -13 35 -15 42 -3 18 -7 20 -21 15z"/>
<path d="M1473 3078 c-12 -20 -10 -55 3 -55 7 0 10 6 7 14 -3 7 2 13 11 13 9
0 16 4 16 10 0 5 -8 6 -17 3 -16 -6 -16 -5 -4 10 8 10 9 17 3 17 -6 0 -14 -6
-19 -12z"/>
<path d="M1174 3057 c-3 -13 -1 -39 4 -58 9 -32 9 -30 10 24 1 61 -4 72 -14
34z"/>
<path d="M1746 3040 c-14 -4 -16 -9 -8 -14 7 -4 12 -5 12 -1 0 3 14 -2 31 -10
39 -21 44 -16 10 11 -17 14 -33 19 -45 14z"/>
<path d="M1420 3016 c0 -4 7 -14 15 -22 8 -8 12 -22 9 -32 -5 -15 -4 -15 6 1
6 9 15 15 19 12 5 -2 14 2 21 10 8 9 8 15 2 15 -6 0 -13 -6 -15 -12 -3 -8 -6
-5 -6 6 -1 11 -6 16 -15 13 -7 -3 -19 0 -25 6 -6 6 -11 8 -11 3z"/>
<path d="M1770 2985 c0 -12 9 -15 39 -13 22 1 38 5 35 9 -3 5 -11 6 -19 3 -7
-3 -23 -1 -34 6 -17 9 -21 8 -21 -5z"/>
<path d="M850 2965 c-7 -14 -11 -26 -9 -28 2 -2 18 -9 34 -16 17 -8 25 -15 19
-18 -9 -3 -9 -10 0 -28 15 -34 23 -31 18 5 -2 17 -16 40 -31 51 l-26 21 25 -7
25 -8 -20 24 c-11 13 -20 25 -21 26 0 2 -7 -8 -14 -22z"/>
<path d="M1320 2979 c0 -8 9 -29 20 -47 16 -27 18 -37 9 -48 -6 -8 -17 -14
-24 -14 -7 0 -16 -7 -19 -16 -5 -14 -4 -15 9 -4 8 7 15 9 15 5 0 -4 9 3 20 16
13 16 19 19 20 10 0 -12 2 -13 13 -2 10 10 9 15 -4 24 -15 12 -43 55 -44 69 0
14 -15 21 -15 7z"/>
<path d="M774 2939 c3 -37 24 -84 33 -75 3 3 1 12 -5 19 -7 8 -9 17 -5 20 3 4
1 7 -6 7 -7 0 -10 7 -7 18 3 9 1 24 -4 32 -6 10 -8 3 -6 -21z"/>
<path d="M579 2930 c-6 -16 -15 -30 -19 -30 -12 0 5 -58 32 -112 19 -38 26
-45 40 -37 18 10 38 -8 21 -20 -5 -3 -10 -19 -11 -36 -2 -16 -4 -39 -5 -50 -2
-16 3 -19 22 -17 15 2 21 0 17 -7 -4 -6 -4 -11 1 -11 9 0 33 47 33 65 0 5 -9
16 -20 23 -17 11 -20 10 -20 -8 0 -13 5 -18 15 -14 10 4 15 0 15 -11 0 -9 -4
-13 -10 -10 -5 3 -10 1 -10 -6 0 -9 -3 -10 -10 -3 -11 11 -13 44 -4 97 5 32 4
37 -13 37 -10 0 -24 -5 -31 -12 -15 -15 -16 3 -2 20 6 6 7 10 3 7 -12 -9 -43
28 -49 60 -6 34 10 80 26 70 4 -3 6 4 3 15 -7 27 -12 25 -24 -10z"/>
<path d="M823 2915 c2 -22 8 -48 13 -59 11 -17 11 -17 17 3 3 12 0 19 -7 18
-6 -1 -10 8 -8 20 2 13 -1 31 -7 40 -8 14 -10 9 -8 -22z"/>
<path d="M1750 2931 c0 -22 16 -29 22 -9 2 6 10 8 17 4 9 -6 9 -11 1 -21 -10
-12 -7 -13 10 -10 13 2 31 12 40 20 14 13 19 13 23 3 4 -9 8 -10 14 -2 4 7 17
14 28 16 11 3 -11 5 -50 5 -38 1 -78 4 -87 8 -14 5 -18 2 -18 -14z"/>
<path d="M1401 2932 c0 -7 -7 -10 -13 -7 -7 4 -4 -1 7 -10 11 -9 19 -21 18
-26 -2 -5 3 -9 11 -9 9 0 14 9 13 20 -1 12 -7 18 -14 16 -6 -3 -14 3 -16 12
-3 9 -5 11 -6 4z"/>
<path d="M1684 2916 c-9 -15 -14 -29 -10 -33 3 -3 6 -2 6 4 0 6 12 8 28 6 l27
-4 -24 14 c-17 10 -20 16 -10 19 8 3 11 9 7 12 -3 4 -14 -4 -24 -18z"/>
<path d="M1260 2917 c0 -7 9 -20 20 -30 23 -19 27 -2 6 26 -16 20 -26 22 -26
4z"/>
<path d="M1493 2881 c-35 -38 -45 -52 -40 -57 2 -3 18 11 35 31 18 19 34 35
38 34 3 0 8 2 12 5 3 3 -2 6 -11 6 -9 0 -25 -9 -34 -19z"/>
<path d="M1761 2885 c-2 -19 22 -35 51 -35 20 0 28 5 27 18 0 10 -3 12 -6 5
-2 -7 -9 -13 -14 -13 -6 0 -7 5 -3 11 5 8 -1 10 -19 5 -16 -4 -27 -1 -30 7 -3
6 -6 7 -6 2z"/>
<path d="M521 2847 c-1 -34 21 -97 35 -97 2 0 -1 10 -8 23 -7 12 -15 42 -19
67 l-6 45 -2 -38z"/>
<path d="M1895 2865 c-29 -13 -29 -14 -6 -15 24 0 24 -1 6 -14 -11 -8 -23 -12
-27 -10 -5 3 -8 0 -8 -5 0 -6 9 -11 21 -11 11 0 17 5 14 10 -3 6 1 10 10 10
11 0 15 5 12 14 -3 7 0 19 6 25 14 14 10 13 -28 -4z"/>
<path d="M1670 2865 c0 -2 14 -11 30 -20 29 -15 44 -5 18 12 -15 9 -48 15 -48
8z"/>
<path d="M1520 2840 c0 -6 -6 -8 -12 -4 -7 4 -5 -2 5 -13 9 -11 17 -26 17 -34
0 -12 -2 -11 -10 1 -6 9 -10 10 -10 3 0 -6 5 -15 10 -18 6 -3 10 -13 10 -21 0
-8 -4 -13 -8 -10 -5 3 -9 -1 -9 -9 0 -11 4 -12 13 -4 8 7 13 6 16 -1 2 -6 3
13 3 42 0 29 -6 59 -12 66 -9 9 -13 10 -13 2z"/>
<path d="M1582 2838 c-15 -15 -16 -64 -2 -73 13 -8 33 -46 23 -44 -19 3 -23
-2 -11 -15 14 -15 32 -11 23 5 -3 5 1 6 10 2 13 -4 14 -8 4 -14 -8 -4 -10 -12
-5 -16 4 -4 13 0 20 9 7 10 17 14 21 10 5 -4 5 -1 1 6 -4 6 -16 12 -26 12 -22
0 -30 11 -40 56 -6 24 -5 32 4 27 6 -4 5 1 -2 10 -8 9 -11 21 -7 27 8 14 2 13
-13 -2z"/>
<path d="M1377 2793 c-13 -27 -30 -47 -40 -49 -28 -4 -34 -14 -9 -14 20 0 22
-5 22 -52 0 -29 4 -58 8 -65 4 -6 7 22 7 62 0 51 4 78 14 87 12 11 13 10 8 -4
-4 -10 -2 -18 3 -18 14 0 12 -33 -2 -50 -11 -12 -10 -12 4 -1 14 10 17 9 22
-7 4 -10 16 -29 29 -43 12 -13 22 -27 22 -31 0 -4 10 -15 23 -23 12 -9 22 -12
22 -7 0 5 18 8 41 7 46 -2 114 28 130 56 8 15 6 19 -7 19 -11 0 -14 -5 -10
-17 4 -10 4 -14 0 -10 -4 3 -19 -2 -33 -12 -15 -10 -46 -19 -72 -20 -38 -1
-53 5 -84 29 -21 16 -34 30 -29 30 5 0 1 5 -9 11 -9 6 -15 14 -12 19 3 5 -2
21 -11 35 -11 16 -15 40 -12 70 2 25 2 45 0 45 -1 0 -12 -21 -25 -47z"/>
<path d="M1278 2788 c20 -20 13 -32 -7 -14 -16 15 -23 16 -43 5 -14 -7 -18
-14 -10 -17 15 -5 16 -48 1 -58 -6 -3 -15 0 -20 7 -6 9 -7 3 -2 -16 4 -16 8
-54 7 -82 -1 -61 -23 -93 -63 -93 -20 0 -23 -2 -11 -10 11 -7 6 -10 -20 -9
-21 0 -29 3 -20 7 29 13 19 28 -16 25 -50 -3 -81 30 -90 97 -4 31 -10 47 -15
39 -8 -13 -5 -35 11 -84 24 -73 125 -120 188 -86 31 17 29 -4 -4 -34 -17 -16
-22 -25 -13 -25 8 -1 2 -8 -13 -16 -33 -17 -36 -24 -8 -17 19 5 49 33 35 33
-3 0 3 12 14 26 12 15 21 31 21 36 0 4 11 25 24 46 34 52 39 89 22 160 -14 59
-13 62 5 62 10 0 19 -6 19 -14 0 -7 7 -19 15 -26 19 -16 19 -35 -1 -54 -12
-12 -12 -16 -2 -17 7 0 27 -21 43 -47 39 -60 94 -92 160 -92 31 0 45 4 37 9
-7 4 -24 6 -38 3 -17 -3 -24 0 -24 11 0 8 -8 21 -17 28 -16 13 -17 12 -5 -3
27 -34 6 -41 -30 -10 -19 17 -38 29 -40 26 -3 -3 -16 9 -29 27 -20 29 -33 74
-43 149 -2 14 -4 28 -5 33 0 4 -6 7 -13 7 -9 0 -9 -3 0 -12z m-39 -125 c-1
-63 -15 -80 -15 -19 0 31 4 56 8 56 4 0 8 -17 7 -37z"/>
<path d="M1037 2763 c-4 -3 -24 -6 -44 -6 -21 0 -29 -2 -18 -4 11 -3 23 -10
27 -16 9 -14 80 3 86 21 4 13 -39 18 -51 5z"/>
<path d="M2395 2740 c-8 -29 -16 -36 -45 -41 l-35 -6 31 -2 c37 -1 67 27 62
60 -2 20 -5 18 -13 -11z"/>
<path d="M1723 2743 c-10 -8 -12 -12 -5 -8 7 4 24 0 37 -9 13 -9 34 -15 46
-13 16 1 24 -5 28 -21 6 -22 6 -22 19 -2 10 17 10 20 -5 20 -18 0 -10 13 10
16 7 1 21 5 31 10 17 6 18 4 13 -22 -11 -49 -13 -124 -4 -124 5 0 7 -7 3 -15
-4 -11 1 -15 19 -15 14 0 25 4 25 8 0 5 10 19 22 32 19 20 19 23 4 17 -14 -6
-17 -3 -12 8 3 10 2 13 -5 10 -6 -4 -8 -12 -6 -19 3 -6 -1 -20 -9 -30 -13 -18
-14 -18 -24 8 -5 15 -10 38 -10 52 0 19 5 24 28 25 l27 1 -30 8 c-20 5 -24 8
-10 9 11 1 16 5 10 9 -5 4 -10 13 -11 20 -1 6 -2 17 -2 22 -2 12 -39 14 -46 2
-8 -14 -67 -13 -96 2 -25 12 -31 12 -47 -1z"/>
<path d="M961 2721 c-13 -8 -8 -10 74 -25 30 -6 30 -6 -2 4 -18 6 -35 15 -38
20 -7 12 -16 12 -34 1z"/>
<path d="M2232 2705 c-7 -14 -12 -35 -12 -45 0 -26 -29 -89 -54 -117 -21 -25
-16 -29 14 -13 16 8 18 8 14 -5 -4 -8 -11 -15 -18 -15 -8 0 -8 -2 0 -8 6 -4
14 -20 18 -37 8 -33 -8 -24 -18 10 -3 11 -4 6 -2 -11 2 -25 -1 -31 -12 -26
-12 4 -14 -2 -9 -30 3 -20 2 -40 -3 -44 -4 -5 -4 -32 0 -60 10 -61 10 -404 0
-404 -4 0 -7 -18 -7 -40 0 -22 3 -40 6 -40 10 0 11 -39 1 -45 -5 -3 -7 -11 -4
-19 3 -7 0 -25 -5 -39 -8 -21 -8 -27 4 -27 10 0 12 -8 8 -27 -3 -16 -5 -45 -6
-65 0 -21 -3 -38 -6 -38 -3 0 -7 -21 -9 -47 -1 -26 -6 -50 -10 -53 -4 -3 -8
-19 -8 -37 -2 -40 -40 -103 -62 -103 -14 0 -15 -2 -2 -10 11 -7 9 -11 -13 -19
-15 -6 -27 -16 -27 -22 0 -13 -38 -49 -51 -49 -5 0 -5 -7 -2 -17 4 -11 3 -14
-5 -9 -7 4 -12 2 -12 -4 0 -6 -34 -46 -76 -88 -42 -42 -71 -67 -65 -55 11 22
-2 43 -14 23 -3 -5 -4 -10 -2 -10 2 0 -16 -20 -40 -45 -66 -68 -132 -110 -178
-114 -22 -2 -42 -7 -45 -11 -7 -12 -123 29 -133 46 -4 8 -14 14 -22 14 -8 0
-28 13 -45 30 -17 16 -35 30 -40 30 -6 0 -10 7 -10 15 0 8 -7 15 -17 15 -9 0
-14 3 -10 6 9 9 -23 38 -46 41 -11 2 -28 9 -36 16 -9 6 -7 1 4 -13 33 -40 44
-51 52 -50 4 0 8 -5 8 -10 0 -12 111 -97 137 -106 10 -3 18 -9 18 -13 0 -9 89
-37 104 -33 4 2 15 -3 24 -10 11 -9 16 -10 19 -2 2 7 20 10 44 8 25 -2 50 2
65 12 13 9 24 14 24 11 0 -4 10 4 23 16 39 38 77 67 85 67 5 0 28 22 53 50 24
27 49 50 55 50 6 0 16 10 23 23 7 12 31 37 53 54 53 44 144 155 168 207 38 85
66 345 51 474 -5 45 -4 65 5 73 9 8 14 3 17 -18 2 -16 4 -8 4 19 0 34 -4 45
-14 41 -18 -7 -17 31 1 46 22 18 48 103 36 115 -7 7 -10 3 -10 -12 0 -28 -27
-82 -40 -82 -13 0 -13 8 5 66 9 27 18 78 21 114 7 94 11 123 19 143 4 10 5 20
2 24 -3 3 1 12 9 20 11 11 12 19 4 28 -8 10 -8 20 -1 33 7 14 6 25 -5 40 -8
12 -11 22 -6 22 4 0 9 24 11 53 1 28 6 53 10 55 4 1 5 16 3 32 -3 24 0 30 13
30 15 0 17 -6 12 -45 -5 -36 -4 -43 8 -39 9 4 15 0 15 -10 0 -9 -8 -16 -20
-16 -11 0 -20 -5 -20 -11 0 -6 7 -8 17 -5 9 4 21 1 26 -6 6 -9 7 -8 3 5 -3 9
-1 17 4 17 6 0 10 7 10 15 0 8 -5 15 -11 15 -7 0 -9 10 -7 25 3 13 2 22 -2 20
-6 -4 -20 36 -24 69 -2 21 -23 15 -34 -9z"/>
<path d="M902 2679 c-11 -22 -22 -39 -25 -37 -3 2 -9 -1 -14 -6 -5 -5 -3 -6 5
-2 6 4 12 3 12 -1 0 -5 -6 -15 -12 -23 -7 -8 2 -2 20 14 17 17 32 37 32 46 0
9 5 21 11 27 7 7 7 13 1 17 -6 3 -19 -12 -30 -35z"/>
<path d="M1136 2705 c-3 -9 -2 -14 3 -11 28 18 28 -92 0 -128 -13 -16 -15 -24
-6 -20 24 9 39 50 41 107 0 31 -1 54 -3 51 -2 -2 -10 1 -16 6 -9 8 -14 6 -19
-5z"/>
<path d="M2060 2661 c0 -10 7 -24 15 -31 8 -7 15 -18 15 -25 0 -7 9 -15 19
-18 15 -4 18 0 16 20 -2 17 2 23 12 19 8 -3 11 -2 8 3 -9 16 -46 9 -40 -8 5
-12 3 -12 -10 -1 -9 8 -14 22 -12 31 3 10 -1 20 -9 23 -9 3 -14 -1 -14 -13z"/>
<path d="M2173 2643 c-17 -6 -16 -33 1 -33 7 0 16 9 19 20 5 20 2 22 -20 13z"/>
<path d="M700 2619 c-7 -11 -9 -27 -6 -34 3 -9 -1 -12 -15 -10 -11 2 -17 0
-14 -6 4 -5 11 -7 16 -4 5 4 9 1 9 -4 0 -19 38 11 50 38 l11 26 -21 -25 c-18
-23 -20 -24 -20 -4 0 11 5 25 12 32 9 9 9 12 0 12 -6 0 -16 -9 -22 -21z"/>
<path d="M897 2607 c-4 -10 -7 -27 -7 -38 0 -26 -17 -24 -32 5 l-13 24 -35
-19 c-19 -11 -26 -17 -15 -13 49 16 53 16 60 -5 9 -29 43 -27 51 3 3 14 4 33
2 43 -3 17 -4 17 -11 0z"/>
<path d="M625 2578 c5 -32 19 -48 44 -48 9 0 7 6 -7 19 -12 10 -22 28 -22 40
0 11 -4 21 -9 21 -5 0 -8 -14 -6 -32z"/>
<path d="M2143 2600 c2 -8 -3 -20 -11 -26 -12 -9 -12 -12 2 -23 13 -11 17 -11
22 3 4 10 1 27 -5 39 -6 12 -10 15 -8 7z"/>
<path d="M1566 2544 c15 -6 36 -9 46 -6 36 9 25 17 -24 17 -47 0 -48 -1 -22
-11z"/>
<path d="M1750 2531 c-13 -33 -57 -78 -66 -68 -4 3 -10 21 -14 39 -7 29 -8 30
-9 7 -1 -34 20 -62 42 -54 9 4 26 22 38 41 11 19 28 41 36 49 12 13 12 15 0
15 -8 0 -20 -13 -27 -29z"/>
<path d="M700 2540 c-8 -5 -12 -10 -8 -10 4 0 3 -14 -2 -31 -7 -25 -6 -30 5
-25 11 4 12 0 5 -18 -9 -24 -4 -62 10 -81 4 -5 6 -21 5 -35 -1 -13 2 -40 6
-60 4 -19 10 -59 14 -88 4 -29 13 -68 21 -87 19 -46 18 -48 -11 -29 -20 13
-28 14 -40 4 -22 -18 -18 -62 14 -159 15 -47 33 -107 40 -133 13 -54 66 -165
82 -170 5 -2 12 -19 15 -38 16 -115 55 -208 124 -295 25 -31 30 -47 30 -91 0
-58 16 -81 26 -37 11 46 15 47 62 1 42 -39 42 -27 0 15 -22 22 -25 45 -3 27 9
-7 15 -8 15 -2 0 14 -28 23 -35 11 -10 -15 -27 1 -22 21 3 14 1 17 -11 13 -11
-5 -14 -2 -9 11 4 10 3 15 -3 11 -6 -3 -10 2 -10 13 0 11 -13 34 -29 53 -16
18 -27 37 -25 41 3 5 -1 11 -10 14 -8 3 -18 20 -22 37 -3 18 -11 35 -16 38 -5
3 -10 22 -11 42 -1 20 -5 37 -9 37 -5 0 -8 15 -8 33 0 20 -9 44 -20 57 -11 13
-21 27 -21 32 -1 4 -3 13 -4 18 -1 6 -4 25 -5 43 l-2 32 -7 -29 c-6 -29 -6
-29 -33 25 -28 55 -37 96 -18 84 6 -3 10 1 10 9 0 10 -6 13 -15 10 -10 -4 -15
0 -15 14 0 12 -4 24 -10 27 -5 3 -10 29 -10 56 0 28 -7 60 -15 73 -14 21 -14
24 0 30 19 7 75 -19 75 -35 0 -6 3 -8 8 -6 4 3 8 -15 10 -40 2 -27 -1 -42 -7
-39 -17 11 -22 -30 -8 -57 8 -15 17 -24 20 -20 11 10 7 231 -4 308 -6 39 -11
86 -11 105 0 19 -3 28 -6 20 -3 -8 -11 -19 -18 -23 -8 -4 -14 -15 -14 -23 0
-9 5 -12 12 -8 7 4 8 3 4 -5 -8 -13 -26 -5 -26 11 0 6 8 20 17 30 16 18 16 18
0 12 -20 -7 -22 7 -4 25 10 10 9 11 -5 6 -13 -5 -18 -2 -19 11 0 11 -3 30 -5
44 -2 14 -7 54 -10 90 -7 77 -14 93 -34 80z m96 -360 c-2 -16 1 -30 5 -30 5 0
8 -10 8 -22 -1 -18 -2 -19 -6 -5 -2 9 -9 14 -15 11 -7 -5 -9 2 -4 20 4 15 2
26 -3 26 -6 0 -8 7 -5 15 10 26 24 16 20 -15z"/>
<path d="M1895 2531 c-3 -11 -13 -25 -22 -33 -15 -11 -16 -11 -10 4 3 10 2 20
-3 23 -6 4 -10 -3 -10 -14 0 -32 19 -35 42 -6 12 16 26 24 36 20 12 -4 13 -3
2 10 -17 20 -27 19 -35 -4z"/>
<path d="M2123 2533 c11 -10 -51 -33 -91 -33 -19 0 -43 6 -51 14 -15 13 -16
12 -17 -15 -2 -27 0 -28 12 -12 8 11 13 13 14 6 0 -21 81 -16 118 7 28 17 36
40 15 40 -4 0 -3 -3 0 -7z"/>
<path d="M1948 2317 c26 -10 30 -15 20 -25 -14 -14 -32 -16 -23 -3 3 5 0 13
-6 17 -7 4 -9 3 -6 -3 4 -6 -6 -16 -23 -22 -37 -13 -39 -19 -2 -15 l27 4 -29
-10 c-22 -7 -32 -6 -40 4 -6 8 -18 17 -26 20 -8 3 -1 4 15 2 17 -2 39 0 50 4
20 9 20 9 0 10 -45 4 -92 -2 -121 -15 -32 -15 -104 -87 -104 -105 0 -6 -7 -10
-15 -10 -8 0 -15 -4 -15 -10 0 -5 19 0 42 12 22 12 60 25 82 29 43 8 95 21
135 34 15 4 21 3 17 -3 -3 -5 10 -4 30 3 19 6 47 11 62 9 15 -1 33 -2 40 -3 7
-1 11 -5 8 -10 -3 -4 6 -13 19 -19 21 -10 25 -9 25 6 0 18 -21 46 -57 76 -19
15 -25 16 -38 6 -9 -7 -15 -8 -15 -2 0 10 -53 33 -74 31 -6 0 4 -6 22 -12z"/>
<path d="M1052 2284 c-14 -16 -67 -20 -57 -4 3 6 1 10 -4 10 -6 0 -11 -4 -11
-9 0 -5 -12 -14 -27 -20 -16 -6 -38 -28 -51 -47 l-23 -36 23 4 c13 2 22 9 20
16 -1 6 4 13 10 14 7 0 18 2 24 2 6 1 18 7 26 13 18 16 59 13 79 -4 9 -8 46
-16 82 -18 72 -5 172 -29 193 -46 7 -6 18 -8 24 -4 14 9 1 28 -15 21 -8 -3
-19 2 -25 10 -7 8 -9 14 -4 14 5 0 1 5 -9 11 -9 5 -21 8 -25 5 -5 -3 -9 1 -9
9 0 8 5 11 11 8 6 -3 5 0 -2 8 -11 12 -14 12 -22 -1 -5 -8 -10 -11 -10 -6 0 5
-6 4 -13 -2 -10 -8 -21 -6 -44 8 -17 10 -35 15 -39 10 -18 -17 -83 -29 -93
-17 -13 17 12 40 28 24 8 -8 11 -6 11 7 0 11 4 14 13 9 6 -4 32 -8 57 -8 31 0
44 -4 42 -12 -3 -17 16 -16 33 1 12 12 11 15 -8 21 -67 21 -170 26 -185 9z"/>
<path d="M1374 2135 c-3 -13 3 -39 16 -64 11 -23 18 -46 15 -50 -6 -11 19 -33
28 -25 8 9 -30 106 -45 116 -9 5 -7 8 8 8 26 0 28 27 2 33 -13 4 -20 -2 -24
-18z"/>
<path d="M1122 2140 c-44 -9 -125 -50 -117 -59 3 -2 25 6 50 18 54 27 138 41
177 30 16 -4 44 -17 63 -29 44 -27 45 -19 2 14 -37 29 -110 39 -175 26z"/>
<path d="M1765 2137 c-17 -8 -37 -22 -45 -32 -10 -13 -5 -11 18 5 26 20 48 25
105 28 61 3 79 0 122 -22 59 -30 71 -27 19 5 -46 28 -172 37 -219 16z"/>
<path d="M1789 2111 c-37 -12 -71 -31 -96 -54 -33 -30 -29 -45 10 -38 31 4 31
5 7 11 l-25 7 28 11 c15 6 27 16 27 22 0 5 7 10 15 10 8 0 15 -9 15 -20 0 -40
67 -53 101 -19 15 15 18 24 9 34 -15 19 6 14 47 -11 l32 -19 -27 -12 c-26 -12
-26 -13 -2 -6 14 3 47 5 73 4 29 -1 46 2 43 8 -4 5 6 11 21 13 25 4 23 5 -12
11 -22 4 -74 19 -115 32 -77 26 -106 29 -151 16z"/>
<path d="M1145 2100 c-16 -4 -55 -18 -85 -29 -30 -12 -63 -21 -72 -21 -23 0
-23 -20 0 -21 9 -1 20 -1 25 0 4 0 7 -3 7 -8 0 -6 8 -9 18 -9 9 1 33 -2 52 -5
34 -6 34 -6 8 5 -35 15 -35 20 1 41 37 22 39 22 43 -5 3 -20 9 -23 53 -23 44
0 50 3 53 23 5 30 25 28 55 -8 28 -32 47 -39 47 -16 0 22 -47 54 -103 71 -55
16 -58 17 -102 5z"/>
<path d="M1710 1986 c24 -30 59 -42 156 -51 46 -5 63 -3 66 7 4 9 -5 13 -31
14 -85 2 -153 13 -179 30 -26 17 -26 17 -12 0z"/>
<path d="M1220 1974 c-17 -10 -47 -14 -92 -12 -73 4 -91 -6 -30 -16 56 -9 100
-7 143 5 32 10 36 14 24 25 -16 16 -13 16 -45 -2z"/>
<path d="M1302 1824 c-36 -39 -35 -136 1 -155 10 -6 35 -9 53 -7 19 2 34 0 34
-5 0 -4 4 -6 9 -3 5 3 22 -1 37 -9 37 -19 91 -19 110 0 9 8 24 15 33 15 10 0
24 7 31 15 7 8 20 15 29 15 13 0 14 -2 2 -9 -12 -8 -9 -11 12 -16 34 -9 71 14
93 58 l16 32 -32 -32 c-33 -35 -53 -43 -44 -18 4 10 0 15 -14 15 -11 0 -39 -7
-62 -15 -23 -8 -54 -15 -69 -15 -18 0 -22 -3 -12 -9 9 -6 10 -10 2 -16 -7 -4
-24 2 -39 12 -39 26 -81 43 -108 43 -35 0 -29 -18 9 -30 l32 -10 -39 5 c-79 9
-115 61 -82 118 19 33 18 42 -2 21z"/>
<path d="M1830 1693 c0 -5 23 -30 50 -56 27 -27 55 -64 62 -83 6 -19 16 -34
20 -34 18 0 6 50 -21 86 -43 60 -112 114 -111 87z"/>
<path d="M1159 1662 c-19 -16 -41 -27 -49 -25 -12 4 -12 3 -1 -5 11 -8 11 -11
-1 -18 -20 -13 -48 -56 -48 -74 1 -11 4 -9 12 5 6 11 38 46 72 77 62 58 75 92
15 40z"/>
<path d="M1663 1534 c-17 -13 -17 -13 3 -14 11 0 26 6 33 13 10 10 11 9 6 -5
-9 -22 4 -22 30 -1 14 11 15 14 3 10 -9 -3 -19 -3 -22 1 -12 11 -35 10 -53 -4z"/>
<path d="M1289 1532 c-8 -2 -21 -6 -29 -9 -8 -3 -19 -7 -25 -8 -5 -1 -12 -3
-15 -4 -22 -10 -56 -9 -84 3 l-34 14 16 -29 c14 -23 26 -30 62 -35 25 -3 62
-17 82 -30 21 -13 40 -24 43 -24 3 0 5 16 5 35 0 28 4 35 20 35 11 0 20 -6 20
-14 0 -8 5 -18 11 -22 7 -4 9 0 5 14 -4 11 -2 23 4 27 18 11 49 -5 53 -28 l4
-22 2 23 c1 18 7 22 36 22 27 0 38 -5 44 -22 l8 -22 6 23 c5 21 9 22 101 19
53 -1 96 -6 96 -11 0 -5 6 -7 14 -4 8 3 17 -1 20 -9 5 -13 8 -13 28 0 13 8 42
18 66 22 32 5 42 11 40 23 -2 10 -12 15 -25 13 -12 -2 -39 1 -59 7 -23 6 -43
7 -53 1 -13 -8 -12 -9 6 -10 12 0 25 -4 28 -10 8 -14 -56 -13 -92 1 -15 6 -73
11 -128 11 -55 0 -108 4 -118 10 -19 10 -133 17 -158 10z m46 -31 c-11 -4 -47
-11 -80 -14 -54 -5 -57 -4 -32 7 16 7 52 13 80 14 36 1 46 -1 32 -7z"/>
<path d="M983 1483 c6 -53 54 -183 67 -183 4 0 11 -11 14 -24 3 -13 13 -26 21
-30 17 -6 14 3 -49 135 -19 41 -37 90 -38 108 -1 18 -7 35 -12 38 -5 4 -7 -14
-3 -44z"/>
<path d="M1725 1420 c3 -5 0 -11 -7 -11 -20 -2 -50 -8 -80 -15 -20 -4 -28 -2
-28 7 0 11 -2 11 -10 -1 -10 -17 -124 -23 -152 -8 -12 6 -18 5 -18 -2 0 -15
16 -20 80 -23 59 -4 176 15 210 33 21 11 27 30 9 30 -5 0 -7 -4 -4 -10z"/>
<path d="M1350 1405 c-12 -14 -12 -16 1 -14 7 2 24 -2 36 -9 14 -8 24 -9 28
-2 3 5 -3 10 -14 10 -11 0 -24 7 -29 16 -8 14 -10 14 -22 -1z"/>
<path d="M1383 1255 c43 -16 223 -23 238 -8 6 6 -33 10 -98 11 -60 2 -124 5
-143 7 l-35 5 38 -15z"/>
<path d="M845 1146 l-30 -25 27 -1 c15 0 31 7 37 18 6 9 11 11 11 5 0 -7 8
-13 18 -13 14 0 15 2 2 10 -8 5 -11 12 -7 16 4 4 16 -1 26 -10 23 -21 43 -124
34 -183 -5 -35 -2 -43 16 -52 11 -7 21 -17 21 -24 0 -7 10 -23 21 -37 l21 -25
-7 30 c-4 17 -18 45 -32 64 -23 30 -25 38 -15 64 9 23 8 35 -3 58 -17 32 -19
59 -5 59 15 0 12 47 -4 53 -7 3 -33 8 -57 12 -38 5 -48 2 -74 -19z"/>
<path d="M1997 1123 c-14 -14 -6 -40 23 -71 17 -19 30 -44 30 -59 l0 -26 19
24 c10 13 21 35 25 49 5 19 2 16 -13 -10 -18 -31 -20 -32 -21 -12 0 13 -9 35
-20 49 -11 14 -18 29 -15 33 6 10 -20 32 -28 23z"/>
<path d="M2305 995 c-27 -8 -67 -14 -88 -15 -61 0 -105 -27 -153 -93 -24 -34
-41 -63 -38 -66 2 -3 22 14 44 38 22 23 43 41 47 38 4 -2 17 0 28 4 18 9 18 9
-2 5 -13 -2 -26 0 -29 5 -5 8 9 13 29 10 4 0 7 6 7 14 0 16 42 25 105 23 22 0
61 3 88 7 42 7 47 6 41 -9 -4 -11 -1 -16 12 -16 15 0 16 -2 5 -9 -21 -14 -21
-37 0 -37 13 0 15 3 7 13 -8 10 -7 13 3 13 19 0 33 -12 37 -29 2 -8 12 -26 22
-41 l18 -25 -91 0 c-71 1 -98 5 -120 19 -37 25 -144 14 -203 -20 -68 -40 -74
-35 -59 43 7 39 9 76 4 88 -4 11 -8 15 -8 10 -5 -72 -25 -182 -34 -190 -10 -8
-9 -14 5 -27 15 -15 18 -15 18 -3 0 8 -5 15 -10 15 -6 0 -5 6 2 14 7 7 19 11
26 9 7 -3 19 0 27 7 8 6 19 9 25 5 5 -3 10 1 10 9 0 18 48 33 99 32 31 -1 35
-5 47 -46 8 -25 18 -76 23 -115 5 -38 14 -87 19 -108 l10 -39 -24 23 c-36 34
-67 87 -58 100 4 7 3 9 -4 5 -6 -3 -13 2 -17 11 -3 10 -16 30 -30 46 -19 21
-33 27 -65 27 -24 0 -39 -4 -35 -10 3 -5 -3 -15 -15 -22 -30 -19 -24 -31 8
-14 34 17 80 12 98 -11 27 -34 54 -92 49 -105 -3 -8 10 -21 32 -33 43 -22 54
-35 46 -49 -11 -18 -12 -106 -1 -106 7 0 7 -4 1 -13 -6 -6 -9 -39 -7 -72 1
-33 3 -73 3 -88 1 -19 5 -27 14 -24 6 2 11 10 9 17 -2 7 -4 42 -6 77 -3 50 0
65 13 73 9 5 11 10 4 10 -7 0 -10 7 -7 15 4 8 1 15 -5 15 -6 0 -8 7 -4 16 5
13 7 13 14 2 5 -8 9 -9 9 -2 0 6 -7 17 -15 24 -17 14 -21 35 -4 24 8 -4 9 1 4
17 -5 16 -4 21 3 14 6 -5 12 -21 14 -35 2 -14 3 16 2 67 -1 50 -5 97 -9 103
-4 7 -10 29 -12 49 -3 20 -10 45 -16 56 -6 11 -16 39 -23 63 -10 38 -9 42 7
42 10 0 30 -15 44 -32 15 -18 24 -28 21 -22 -9 17 12 22 79 19 59 -3 132 -30
163 -61 8 -9 23 -12 38 -8 18 5 31 1 45 -15 11 -11 15 -21 8 -21 -6 0 -1 -9
12 -20 21 -17 22 -21 9 -30 -13 -8 -12 -10 5 -10 20 -1 20 -1 0 -17 -18 -14
-18 -15 -2 -9 10 3 25 6 33 6 8 0 11 6 7 17 -5 12 -3 14 7 8 9 -5 11 -4 6 4
-4 6 -11 9 -15 7 -9 -6 -44 64 -37 72 9 8 76 -65 76 -82 0 -9 3 -16 8 -17 43
-4 77 -11 86 -18 6 -5 26 -12 44 -16 17 -3 32 -11 32 -16 0 -10 -35 -4 -80 13
-43 17 -68 19 -76 7 -4 -8 -3 -9 4 -5 14 8 36 -40 26 -56 -4 -6 -2 -8 4 -4 10
6 21 -20 41 -99 9 -36 13 -56 26 -130 2 -11 9 -42 15 -70 13 -53 12 -53 30
-162 12 -77 21 -88 41 -50 11 20 11 21 -4 8 -23 -18 -21 -9 5 35 12 21 17 34
10 30 -16 -9 -15 6 1 24 10 12 9 12 -5 2 -13 -10 -17 -10 -21 0 -2 7 -4 1 -3
-14 0 -14 5 -24 10 -20 5 3 6 -2 3 -12 -4 -10 -7 -20 -7 -22 0 -2 -4 -4 -9 -4
-4 0 -7 14 -5 31 2 16 0 28 -4 25 -4 -2 -7 13 -7 34 0 21 3 36 7 34 4 -3 5 2
2 10 -3 9 -11 13 -17 9 -6 -3 -7 -1 -3 5 4 6 3 20 -2 29 -12 22 -4 45 11 37 8
-5 8 -2 0 7 -7 7 -13 22 -13 34 0 12 -4 25 -10 31 -5 5 -11 23 -13 40 -2 16
-6 34 -9 39 -3 6 -13 37 -23 70 -10 33 -23 66 -28 72 -15 21 18 26 52 9 17 -9
33 -16 36 -16 25 1 34 -2 52 -19 21 -20 39 -16 38 9 0 9 -8 14 -19 12 -10 -2
-15 1 -12 6 3 5 -6 7 -21 4 -18 -3 -24 -1 -19 7 4 6 13 9 19 5 7 -3 -4 9 -23
26 -35 32 -221 131 -294 156 -29 11 -42 11 -52 3 -11 -9 -14 -8 -14 3 0 8 -10
19 -23 25 -14 7 -23 20 -25 38 -2 27 -25 63 -75 117 -15 16 -32 38 -37 49 -12
22 -27 23 -95 4z"/>
<path d="M633 971 c-22 -11 -43 -27 -46 -38 -15 -54 -17 -74 -8 -68 14 8 92
-27 110 -48 17 -21 31 -22 31 -1 0 8 -4 13 -8 10 -13 -8 -89 51 -95 74 -7 27
20 53 49 47 13 -2 23 -1 22 2 -2 19 5 20 33 6 17 -9 33 -14 37 -11 3 3 11 -3
19 -13 7 -11 27 -22 44 -26 18 -4 35 -16 41 -31 7 -14 17 -23 25 -20 19 7 43
-4 43 -19 0 -9 8 -12 20 -10 14 3 24 -3 29 -17 5 -15 10 -18 15 -9 6 9 11 8
21 -6 7 -10 16 -15 20 -11 15 15 -68 73 -201 138 -77 39 -145 70 -150 70 -5 0
-28 -9 -51 -19z"/>
<path d="M763 898 c9 -7 28 -33 42 -58 15 -25 24 -36 20 -25 -4 11 -10 29 -13
40 -6 22 -39 55 -55 55 -6 0 -3 -6 6 -12z"/>
<path d="M511 819 c-18 -11 -38 -33 -44 -49 -6 -17 -16 -30 -23 -30 -41 0
-444 -237 -444 -262 0 -5 10 -4 21 3 15 8 19 8 15 0 -16 -25 12 -8 33 20 29
39 118 81 142 66 19 -12 53 -2 44 13 -3 5 -2 10 2 10 5 0 17 16 27 35 19 34
46 48 46 23 0 -7 -9 -33 -20 -57 -24 -52 -47 -138 -55 -206 -3 -27 -10 -80
-16 -116 -6 -36 -11 -102 -13 -147 -1 -45 -5 -84 -8 -88 -9 -8 2 -34 14 -34 6
0 8 6 5 14 -3 8 -3 17 1 20 3 4 6 19 7 34 0 18 5 26 15 24 12 -3 11 0 -2 15
-13 14 -14 22 -6 37 6 10 6 16 1 13 -5 -3 -9 7 -8 21 0 17 7 30 19 35 15 6 16
10 6 21 -7 10 -9 32 -6 63 4 26 7 63 9 81 1 17 4 32 7 32 3 0 6 12 7 28 3 48
9 65 34 85 13 10 17 17 9 15 -25 -5 -23 13 1 26 12 6 24 18 26 26 4 12 3 13
-5 1 -8 -11 -11 -10 -14 5 -5 29 30 97 48 90 8 -3 14 -1 14 4 0 6 7 10 15 10
19 0 55 31 55 47 0 7 10 13 23 13 13 0 28 5 34 11 12 12 121 8 161 -6 17 -6
22 -4 22 9 0 9 -7 15 -17 14 -10 -1 -35 0 -57 0 -29 2 -37 5 -32 17 4 12 2 13
-14 3 -10 -7 -23 -8 -27 -4 -4 5 -2 11 5 13 6 3 12 9 12 14 0 15 -33 10 -69
-12z"/>
<path d="M828 773 c-9 -2 -21 -17 -27 -33 -10 -30 -10 -30 14 -14 13 9 29 13
35 9 5 -3 10 -1 10 4 0 21 68 11 126 -18 49 -25 54 -26 31 -7 -23 18 -153 69
-168 65 -2 -1 -12 -3 -21 -6z"/>
<path d="M676 721 c-9 -16 -16 -41 -16 -56 0 -16 -6 -25 -15 -25 -8 0 -15 -5
-15 -11 0 -5 5 -7 10 -4 11 7 14 -28 4 -38 -11 -10 -12 -82 -2 -88 5 -3 2 -13
-7 -23 -15 -15 -15 -16 4 -16 19 0 21 6 22 58 2 91 7 137 23 183 18 52 14 63
-8 20z"/>
<path d="M1905 728 c-11 -6 -39 -28 -62 -50 -24 -21 -46 -38 -51 -38 -15 0
-222 -224 -222 -240 0 -6 5 -8 10 -5 6 3 10 2 10 -3 0 -16 32 -24 44 -11 8 9
7 10 -6 6 -18 -6 -46 19 -33 31 4 4 10 2 12 -5 3 -7 12 -3 26 10 14 14 18 25
12 29 -6 5 -3 14 9 25 18 16 19 16 7 1 -20 -27 -6 -22 24 8 14 14 23 30 20 35
-4 5 2 9 11 9 10 0 14 3 11 7 -4 3 7 15 24 25 16 10 28 22 25 26 -2 4 3 8 12
9 51 2 82 8 82 15 0 4 -6 8 -12 8 -8 0 -5 7 6 15 19 15 19 15 -2 15 -12 0 -22
5 -22 11 0 5 4 8 9 5 5 -3 14 1 21 9 11 13 15 11 32 -10 16 -21 22 -23 39 -12
23 14 25 27 4 27 -8 0 -15 -8 -15 -17 0 -12 -5 -9 -15 11 -20 37 -20 37 20 30
41 -6 81 9 46 19 -11 3 -21 1 -21 -4 0 -5 -4 -9 -10 -9 -5 0 -10 7 -10 15 0
18 -8 18 -35 3z"/>
<path d="M1065 710 c9 -10 15 -26 12 -35 -4 -9 -1 -15 8 -15 12 0 45 -29 98
-87 29 -32 14 -79 -21 -66 -10 4 -13 2 -8 -5 4 -8 0 -12 -11 -12 -10 0 -25 -5
-33 -10 -10 -6 -2 -8 25 -3 22 3 52 6 67 6 24 0 25 2 15 20 -9 15 -9 21 0 24
7 2 9 11 7 18 -6 15 16 11 79 -14 15 -6 27 -8 27 -6 0 3 17 -4 37 -15 21 -11
41 -20 45 -20 4 0 18 -10 31 -22 14 -13 35 -31 48 -41 13 -10 19 -16 13 -13
-23 11 -94 23 -94 16 0 -4 21 -15 48 -25 26 -10 55 -24 64 -32 15 -13 18 -12
29 8 11 21 8 26 -29 59 -49 44 -144 92 -238 121 -85 26 -114 43 -114 69 0 12
-10 24 -22 29 -13 5 -36 23 -51 40 -16 17 -34 31 -39 31 -6 0 -3 -9 7 -20z"/>
<path d="M2460 702 c0 -7 4 -12 9 -12 4 0 6 -11 4 -24 -4 -19 -1 -23 21 -22
26 2 48 15 28 17 -7 1 -18 2 -24 3 -7 0 -13 6 -13 13 0 7 -6 18 -12 25 -10 9
-13 9 -13 0z"/>
<path d="M1084 637 c3 -10 6 -28 6 -38 0 -11 4 -18 9 -14 5 3 12 -4 16 -15 8
-24 45 -48 45 -29 0 7 -7 19 -15 28 -9 9 -28 32 -42 51 -14 19 -23 27 -19 17z"/>
<path d="M1926 613 c-10 -33 -25 -108 -32 -158 -7 -58 -12 -68 -26 -59 -7 4
-8 2 -4 -5 4 -6 12 -8 18 -5 6 4 8 -1 3 -15 -8 -26 -8 -147 -1 -181 7 -27 19
-117 19 -137 0 -7 5 -13 10 -13 5 0 4 -6 -2 -14 -16 -19 5 -32 24 -16 12 10
15 10 15 0 0 -8 3 -11 6 -8 8 9 -16 49 -25 43 -5 -3 -11 2 -14 9 -4 10 0 13
14 11 11 -2 17 0 14 6 -4 5 -10 7 -15 4 -4 -3 -11 2 -14 11 -3 8 -2 13 3 9 18
-11 18 21 -1 58 -16 32 -17 41 -6 55 11 13 11 14 -1 7 -11 -6 -13 -4 -8 9 4
10 3 15 -3 11 -12 -7 -9 23 4 44 6 10 5 12 -2 7 -8 -5 -11 -1 -9 11 4 28 17
44 30 36 7 -3 4 3 -5 14 -10 11 -18 26 -18 33 0 7 8 22 18 33 9 11 11 17 4 13
-13 -8 -13 -3 3 124 2 14 8 37 14 53 6 15 6 27 1 27 -5 0 -11 -8 -14 -17z"/>
<path d="M2480 607 c0 -8 3 -17 7 -21 4 -4 8 -19 8 -34 0 -16 6 -26 13 -24 7
1 12 -2 12 -8 0 -5 4 -10 8 -10 4 0 8 11 8 25 0 18 -3 21 -12 14 -13 -11 -29
4 -20 19 6 11 46 9 64 -2 7 -4 12 -4 11 1 -4 21 3 24 24 10 19 -12 24 -13 24
-2 0 8 -4 12 -9 9 -4 -3 -8 -1 -8 3 0 13 -61 33 -98 33 -20 0 -32 -5 -32 -13z
m80 -7 c3 -1 9 -2 13 -1 5 1 6 -2 3 -7 -3 -5 -22 -7 -43 -6 -46 2 -45 2 -39
12 5 8 50 9 66 2z"/>
<path d="M404 583 c-10 -8 -28 -21 -38 -29 -11 -7 -17 -16 -14 -19 3 -3 13 1
22 10 9 10 23 14 31 11 10 -3 12 0 8 12 -6 15 -3 14 15 -2 19 -17 22 -17 22
-3 0 10 1 20 3 24 5 13 -30 10 -49 -4z"/>
<path d="M1869 571 c-7 -16 -17 -27 -22 -24 -5 3 -4 -3 2 -14 7 -14 7 -23 -1
-31 -7 -7 -8 -12 -3 -12 4 0 0 -9 -9 -19 -11 -12 -14 -21 -7 -26 6 -3 11 -11
11 -16 0 -6 -4 -7 -10 -4 -5 3 -10 1 -10 -5 0 -6 -4 -8 -10 -5 -11 7 -2 -23
13 -42 6 -8 4 -18 -7 -28 -20 -20 -21 -32 -2 -16 11 9 16 9 22 0 5 -8 3 -9 -5
-4 -10 6 -12 -15 -9 -93 1 -55 6 -98 9 -96 3 2 6 -15 6 -36 0 -43 -9 -51 -27
-23 -9 15 -10 13 -5 -12 3 -16 13 -35 21 -41 12 -10 12 -13 2 -17 -7 -3 -3 -6
10 -6 13 -1 22 5 22 14 0 8 -7 15 -16 15 -8 0 -12 5 -9 10 4 6 11 7 17 4 7 -4
8 -2 4 4 -4 6 -8 33 -11 59 -2 26 -7 82 -10 124 -4 48 -3 79 3 83 7 4 7 17 2
36 -5 16 -5 32 -1 35 5 2 8 19 8 38 -1 18 2 37 5 42 3 6 9 28 12 50 4 22 13
50 22 62 8 13 10 23 5 23 -5 0 -15 -13 -22 -29z"/>
<path d="M2708 589 c-9 -6 -7 -13 7 -30 12 -13 14 -19 5 -14 -18 11 -44 16
-35 7 4 -4 11 -8 16 -8 5 -1 11 -3 14 -4 3 -1 10 -3 15 -4 6 0 10 -5 11 -11 1
-5 5 -18 11 -29 6 -12 6 -16 0 -12 -5 3 -16 -2 -23 -12 -11 -14 -11 -15 1 -5
11 10 18 9 37 -9 l22 -21 -5 24 c-3 13 -7 31 -8 39 -2 8 -8 14 -12 13 -8 -1
-12 13 -17 68 -1 17 -19 20 -39 8z"/>
<path d="M934 534 c-33 -26 -160 -74 -193 -74 -13 0 -18 -5 -15 -14 4 -11 12
-11 47 0 23 8 70 22 104 31 42 12 63 23 66 35 6 22 40 24 58 2 17 -21 68 -46
82 -41 7 3 -3 10 -20 17 -18 7 -33 17 -33 24 0 7 -15 19 -33 28 -31 15 -34 14
-63 -8z"/>
<path d="M131 529 c-31 -12 -21 -22 10 -11 19 8 52 9 78 3 2 -1 -2 -7 -8 -15
-6 -7 -9 -21 -5 -30 3 -9 1 -16 -4 -16 -6 0 -9 -10 -7 -21 3 -13 -4 -29 -18
-40 -13 -12 -16 -18 -7 -17 10 2 15 -7 15 -27 2 -32 -12 -58 -25 -50 -5 3 -12
0 -16 -6 -4 -7 -3 -9 3 -6 6 4 16 0 23 -8 12 -14 7 -20 -14 -16 -5 1 -4 -4 2
-12 14 -16 4 -30 -13 -19 -6 4 -2 -1 8 -10 11 -10 16 -19 13 -19 -3 -1 -10 -2
-15 -3 -22 -3 -18 -12 4 -12 14 0 26 4 26 8 1 4 3 22 4 38 1 17 3 31 5 33 1 1
3 18 5 37 2 19 7 51 11 70 3 19 8 49 10 65 2 17 7 37 11 45 18 43 14 50 -30
49 -23 0 -53 -5 -66 -10z"/>
<path d="M1788 518 c-41 -24 -50 -39 -19 -31 16 4 72 53 60 53 -2 0 -21 -10
-41 -22z"/>
<path d="M2621 496 c-8 -10 -8 -16 1 -23 17 -12 38 -11 38 2 0 6 -6 10 -12 10
-7 1 -12 6 -10 13 3 16 -3 15 -17 -2z"/>
<path d="M2350 491 c0 -9 21 -29 30 -29 13 0 66 -15 75 -21 9 -7 19 -7 43 -2
15 3 -44 30 -80 36 -21 4 -40 11 -44 16 -7 12 -24 12 -24 0z"/>
<path d="M2519 499 c-6 -31 -6 -40 1 -44 4 -3 13 1 19 9 9 10 8 16 -4 26 -8 7
-15 11 -16 9z"/>
<path d="M443 456 c2 -6 39 -12 83 -14 117 -4 108 7 89 -121 -2 -13 -7 -27
-12 -30 -4 -3 -9 -13 -11 -21 -5 -23 -23 -40 -35 -33 -6 3 -7 1 -3 -6 6 -8 12
-9 20 -2 7 6 16 9 19 6 4 -3 5 -2 3 1 -3 3 8 20 24 37 21 23 27 38 24 56 -3
15 -1 47 4 74 l9 47 -51 1 c-28 0 -77 4 -109 8 -38 5 -56 4 -54 -3z"/>
<path d="M1182 434 c6 -5 29 -11 51 -13 5 -1 5 -5 2 -11 -3 -5 1 -10 9 -10 19
0 21 16 5 26 -15 9 -75 16 -67 8z"/>
<path d="M2777 416 c-4 -9 -11 -15 -16 -11 -5 3 -12 1 -15 -4 -4 -5 -2 -12 3
-15 5 -4 12 -2 16 4 7 12 25 4 25 -11 0 -6 -5 -7 -10 -4 -6 4 -9 1 -8 -6 2 -7
-2 -13 -9 -14 -6 0 -14 -3 -18 -7 -4 -3 0 -5 9 -4 8 1 18 5 22 8 3 4 12 4 20
1 21 -8 -2 -33 -27 -28 -11 2 -17 0 -14 -6 4 -5 11 -6 17 -3 6 4 9 1 6 -7 -2
-7 -16 -14 -31 -14 -29 -2 -34 4 -16 22 9 9 7 11 -7 9 -26 -4 -25 -48 1 -52
11 -2 23 2 27 9 6 9 8 8 8 -2 0 -11 4 -10 16 5 12 15 15 16 10 2 -3 -12 0 -16
15 -13 16 3 19 -2 19 -38 0 -23 5 -49 10 -57 8 -12 10 -12 9 5 0 11 -4 41 -8
67 -5 31 -4 51 3 59 8 9 8 10 -1 5 -7 -4 -13 -4 -14 1 0 4 -3 17 -6 28 -10 42
-8 70 5 67 8 -1 11 2 7 8 -5 8 -11 8 -20 0 -10 -8 -14 -8 -17 2 -3 8 -7 6 -11
-6z"/>
<path d="M2314 374 c3 -9 6 -21 6 -27 0 -7 4 -6 10 3 8 13 10 12 10 -4 0 -11
3 -16 7 -13 8 9 -17 57 -30 57 -5 0 -6 -7 -3 -16z"/>
<path d="M1255 365 c5 -11 9 -95 9 -187 1 -91 4 -170 8 -174 4 -4 14 -1 23 6
12 10 15 10 15 0 0 -8 3 -11 6 -7 3 3 3 11 -1 17 -5 8 -11 8 -21 -1 -9 -7 -14
-8 -14 -1 0 6 4 13 8 16 9 5 9 47 -1 63 -4 6 -4 19 0 29 5 13 3 15 -8 9 -9 -6
-8 0 5 19 10 16 14 26 9 23 -16 -10 -11 57 6 76 11 14 12 18 2 15 -9 -2 -14
10 -16 40 -1 26 -9 50 -20 60 -17 16 -17 16 -10 -3z"/>
<path d="M1617 340 c3 -11 9 -20 14 -20 5 0 9 -11 9 -25 0 -16 -6 -25 -15 -25
-8 0 -15 -8 -15 -17 0 -14 -5 -12 -27 8 -27 23 -27 22 2 -9 29 -32 29 -32 48
-13 19 19 34 116 16 105 -4 -2 -10 0 -14 6 -11 18 -23 11 -18 -10z"/>
<path d="M2521 306 c-16 -17 -18 -23 -6 -23 19 0 49 33 37 41 -5 3 -19 -5 -31
-18z"/>
<path d="M1211 303 c-1 -13 -2 -26 -3 -30 -10 -37 -13 -103 -4 -103 6 0 11 15
12 33 0 17 3 43 6 57 3 14 2 34 -3 45 -7 19 -8 19 -8 -2z"/>
<path d="M2329 292 c-11 -12 -13 -26 -8 -46 4 -15 5 -34 3 -41 -8 -19 12 -27
26 -11 9 12 8 20 -5 40 -16 24 -16 26 -1 32 17 6 22 29 8 38 -5 3 -15 -3 -23
-12z"/>
<path d="M1493 258 c-4 -7 -8 -16 -9 -20 -1 -5 -2 -9 -3 -10 -5 -6 -13 -96
-14 -157 -1 -44 2 -66 11 -68 9 -4 12 15 13 69 0 68 4 115 12 162 2 11 12 23
23 27 18 7 17 8 -3 8 -12 1 -25 -5 -30 -11z"/>
<path d="M2921 242 c-15 -28 -2 -40 36 -33 4 0 -1 7 -12 14 -10 8 -15 19 -11
25 4 7 5 12 2 12 -3 0 -10 -8 -15 -18z"/>
<path d="M599 199 c-10 -6 -6 -9 14 -9 18 0 27 -5 27 -16 0 -8 -5 -12 -11 -9
-6 4 -18 -3 -26 -15 -9 -13 -22 -20 -33 -17 -12 3 -17 -1 -15 -12 1 -9 -5 -27
-13 -41 -13 -23 -12 -23 10 3 16 18 30 26 41 21 9 -3 17 -9 17 -13 0 -4 26 -8
58 -8 49 0 59 3 67 21 15 33 7 60 -23 73 -50 21 -99 31 -113 22z m97 -44 c-3
-8 -1 -15 5 -15 6 0 8 -7 5 -16 -4 -9 -2 -13 5 -8 7 4 10 1 7 -7 -8 -23 -128
-12 -128 12 0 5 6 9 13 9 6 0 23 9 37 20 30 24 65 27 56 5z"/>
<path d="M2970 183 c-16 -21 -20 -23 -16 -8 5 17 3 16 -13 -5 -11 -14 -17 -27
-15 -30 3 -2 9 2 13 9 6 8 10 9 12 3 2 -6 14 4 27 23 27 42 22 46 -8 8z"/>
<path d="M167 143 c-4 -21 -5 -47 -3 -58 2 -11 -2 -24 -8 -28 -8 -6 -8 -10 0
-13 7 -3 9 -15 6 -27 -3 -12 -1 -18 3 -14 9 7 19 177 11 177 -2 0 -6 -17 -9
-37z"/>
<path d="M1205 102 c2 -31 3 -67 4 -80 1 -13 5 -21 9 -18 5 3 7 29 5 58 -2 29
-4 61 -4 70 0 10 -4 20 -8 23 -5 2 -7 -21 -6 -53z"/>
<path d="M2248 155 c-9 -10 1 -110 12 -113 6 -2 8 -7 6 -11 -3 -4 1 -8 9 -8
16 0 19 9 8 21 -4 3 -9 14 -11 24 -8 42 -13 68 -14 80 -1 14 -2 14 -10 7z"/>
<path d="M2834 133 c3 -16 7 -39 10 -53 3 -14 8 -37 12 -53 3 -15 9 -27 13
-27 8 0 -6 100 -15 109 -2 2 2 11 9 19 9 13 9 14 0 8 -8 -4 -13 -1 -13 8 0 9
-4 16 -10 16 -5 0 -8 -12 -6 -27z"/>
<path d="M2400 124 c0 -3 7 -12 15 -21 10 -10 12 -19 6 -27 -15 -19 13 -38 34
-22 17 12 17 13 1 19 -10 4 -14 12 -10 18 4 8 3 9 -4 5 -7 -4 -12 -1 -12 7 0
8 -7 17 -15 21 -8 3 -15 3 -15 0z"/>
<path d="M2521 101 c-8 -5 -20 -7 -27 -4 -6 2 -15 0 -18 -5 -3 -5 7 -12 23
-14 22 -3 31 0 34 14 6 21 6 20 -12 9z"/>
</g>
</svg>
